<svg width="215" height="370" viewBox="0 0 215 370" fill="none" xmlns="http://www.w3.org/2000/svg">
<g opacity="0.3">
<line x1="184.144" y1="11.5288" x2="188.004" y2="0.924029" stroke="#0C9FEB" stroke-width="1.81208"/>
<line x1="208.266" y1="11.0335" x2="213.909" y2="1.26008" stroke="#0C9FEB" stroke-width="1.81208"/>
<line x1="16.0448" y1="11.1224" x2="7.39972" y2="3.86826" stroke="#0C9FEB" stroke-width="1.81208"/>
<line x1="40.283" y1="11.7159" x2="33.0289" y2="3.07079" stroke="#0C9FEB" stroke-width="1.81208"/>
<line x1="64.376" y1="11.9395" x2="58.7333" y2="2.16612" stroke="#0C9FEB" stroke-width="1.81208"/>
<line x1="88.3652" y1="12.1486" x2="84.5053" y2="1.5438" stroke="#0C9FEB" stroke-width="1.81208"/>
<line x1="112.292" y1="12.349" x2="110.332" y2="1.23513" stroke="#0C9FEB" stroke-width="1.81208"/>
<line x1="136.2" y1="12.1917" x2="136.2" y2="0.906349" stroke="#0C9FEB" stroke-width="1.81208"/>
<line x1="160.135" y1="12.0344" x2="162.095" y2="0.920467" stroke="#0C9FEB" stroke-width="1.81208"/>
<line x1="158.753" y1="31.2786" x2="162.613" y2="20.6738" stroke="#0C9FEB" stroke-width="1.81208"/>
<line x1="182.873" y1="30.7824" x2="188.515" y2="21.009" stroke="#0C9FEB" stroke-width="1.81208"/>
<line x1="207.147" y1="30.3008" x2="214.401" y2="21.6558" stroke="#0C9FEB" stroke-width="1.81208"/>
<line x1="14.8926" y1="31.4656" x2="7.63851" y2="22.8205" stroke="#0C9FEB" stroke-width="1.81208"/>
<line x1="38.9856" y1="31.6884" x2="33.3429" y2="21.915" stroke="#0C9FEB" stroke-width="1.81208"/>
<line x1="62.9714" y1="31.8983" x2="59.1115" y2="21.2936" stroke="#0C9FEB" stroke-width="1.81208"/>
<line x1="86.898" y1="32.0979" x2="84.9383" y2="20.984" stroke="#0C9FEB" stroke-width="1.81208"/>
<line x1="110.806" y1="31.9406" x2="110.806" y2="20.6552" stroke="#0C9FEB" stroke-width="1.81208"/>
<line x1="134.745" y1="31.7832" x2="136.704" y2="20.6693" stroke="#0C9FEB" stroke-width="1.81208"/>
<line x1="133.359" y1="51.0283" x2="137.219" y2="40.4235" stroke="#0C9FEB" stroke-width="1.81208"/>
<line x1="157.482" y1="50.5321" x2="163.125" y2="40.7587" stroke="#0C9FEB" stroke-width="1.81208"/>
<line x1="181.756" y1="50.0497" x2="189.01" y2="41.4046" stroke="#0C9FEB" stroke-width="1.81208"/>
<line x1="206.218" y1="49.2328" x2="214.863" y2="41.9787" stroke="#0C9FEB" stroke-width="1.81208"/>
<line x1="13.5916" y1="51.4381" x2="7.94889" y2="41.6647" stroke="#0C9FEB" stroke-width="1.81208"/>
<line x1="37.581" y1="51.648" x2="33.7212" y2="41.0432" stroke="#0C9FEB" stroke-width="1.81208"/>
<line x1="61.5076" y1="51.8476" x2="59.5479" y2="40.7337" stroke="#0C9FEB" stroke-width="1.81208"/>
<line x1="85.4155" y1="51.6903" x2="85.4155" y2="40.4049" stroke="#0C9FEB" stroke-width="1.81208"/>
<line x1="109.351" y1="51.533" x2="111.311" y2="40.4191" stroke="#0C9FEB" stroke-width="1.81208"/>
<line x1="107.969" y1="70.7771" x2="111.829" y2="60.1723" stroke="#0C9FEB" stroke-width="1.81208"/>
<line x1="132.088" y1="70.2818" x2="137.731" y2="60.5084" stroke="#0C9FEB" stroke-width="1.81208"/>
<line x1="156.362" y1="69.7994" x2="163.616" y2="61.1544" stroke="#0C9FEB" stroke-width="1.81208"/>
<line x1="180.824" y1="68.9826" x2="189.469" y2="61.7285" stroke="#0C9FEB" stroke-width="1.81208"/>
<line x1="205.501" y1="67.8338" x2="215.275" y2="62.1911" stroke="#0C9FEB" stroke-width="1.81208"/>
<line x1="12.1872" y1="71.3969" x2="8.32735" y2="60.7921" stroke="#0C9FEB" stroke-width="1.81208"/>
<line x1="36.1138" y1="71.5974" x2="34.1541" y2="60.4835" stroke="#0C9FEB" stroke-width="1.81208"/>
<line x1="60.0217" y1="71.4401" x2="60.0217" y2="60.1547" stroke="#0C9FEB" stroke-width="1.81208"/>
<line x1="83.9605" y1="71.2827" x2="85.9202" y2="60.1688" stroke="#0C9FEB" stroke-width="1.81208"/>
<line x1="82.5751" y1="90.5268" x2="86.4349" y2="79.9221" stroke="#0C9FEB" stroke-width="1.81208"/>
<line x1="106.698" y1="90.0307" x2="112.341" y2="80.2573" stroke="#0C9FEB" stroke-width="1.81208"/>
<line x1="130.972" y1="89.5491" x2="138.226" y2="80.9041" stroke="#0C9FEB" stroke-width="1.81208"/>
<line x1="155.433" y1="88.7314" x2="164.079" y2="81.4773" stroke="#0C9FEB" stroke-width="1.81208"/>
<line x1="180.107" y1="87.5834" x2="189.881" y2="81.9408" stroke="#0C9FEB" stroke-width="1.81208"/>
<line x1="205.018" y1="86.8106" x2="215.623" y2="82.9508" stroke="#0C9FEB" stroke-width="1.81208"/>
<line x1="10.7234" y1="91.3462" x2="8.76376" y2="80.2323" stroke="#0C9FEB" stroke-width="1.81208"/>
<line x1="34.6313" y1="91.1889" x2="34.6313" y2="79.9035" stroke="#0C9FEB" stroke-width="1.81208"/>
<line x1="58.5667" y1="91.0316" x2="60.5264" y2="79.9177" stroke="#0C9FEB" stroke-width="1.81208"/>
<line x1="57.1847" y1="110.276" x2="61.0446" y2="99.6709" stroke="#0C9FEB" stroke-width="1.81208"/>
<line x1="81.304" y1="109.78" x2="86.9466" y2="100.007" stroke="#0C9FEB" stroke-width="1.81208"/>
<line x1="105.578" y1="109.298" x2="112.832" y2="100.653" stroke="#0C9FEB" stroke-width="1.81208"/>
<line x1="130.04" y1="108.481" x2="138.685" y2="101.227" stroke="#0C9FEB" stroke-width="1.81208"/>
<line x1="154.717" y1="107.332" x2="164.49" y2="101.69" stroke="#0C9FEB" stroke-width="1.81208"/>
<line x1="179.628" y1="106.56" x2="190.232" y2="102.701" stroke="#0C9FEB" stroke-width="1.81208"/>
<line x1="204.792" y1="105.461" x2="215.906" y2="103.502" stroke="#0C9FEB" stroke-width="1.81208"/>
<line x1="9.23727" y1="110.939" x2="9.23727" y2="99.6532" stroke="#0C9FEB" stroke-width="1.81208"/>
<line x1="33.1763" y1="110.781" x2="35.136" y2="99.6674" stroke="#0C9FEB" stroke-width="1.81208"/>
<line x1="31.7909" y1="130.025" x2="35.6508" y2="119.421" stroke="#0C9FEB" stroke-width="1.81208"/>
<line x1="55.9136" y1="129.529" x2="61.5563" y2="119.756" stroke="#0C9FEB" stroke-width="1.81208"/>
<line x1="80.1878" y1="129.048" x2="87.4419" y2="120.403" stroke="#0C9FEB" stroke-width="1.81208"/>
<line x1="104.649" y1="128.231" x2="113.294" y2="120.977" stroke="#0C9FEB" stroke-width="1.81208"/>
<line x1="129.323" y1="127.082" x2="139.097" y2="121.439" stroke="#0C9FEB" stroke-width="1.81208"/>
<line x1="154.234" y1="126.31" x2="164.838" y2="122.45" stroke="#0C9FEB" stroke-width="1.81208"/>
<line x1="179.398" y1="125.211" x2="190.512" y2="123.251" stroke="#0C9FEB" stroke-width="1.81208"/>
<line x1="7.78229" y1="130.531" x2="9.74197" y2="119.417" stroke="#0C9FEB" stroke-width="1.81208"/>
<line x1="218.926" y1="125.951" x2="207.64" y2="125.951" stroke="#0C9FEB" stroke-width="1.81208"/>
<line x1="6.40055" y1="149.775" x2="10.2604" y2="139.17" stroke="#0C9FEB" stroke-width="1.81208"/>
<line x1="30.5198" y1="149.279" x2="36.1625" y2="139.506" stroke="#0C9FEB" stroke-width="1.81208"/>
<line x1="54.7937" y1="148.797" x2="62.0478" y2="140.151" stroke="#0C9FEB" stroke-width="1.81208"/>
<line x1="79.2553" y1="147.98" x2="87.9003" y2="140.726" stroke="#0C9FEB" stroke-width="1.81208"/>
<line x1="103.933" y1="146.831" x2="113.706" y2="141.188" stroke="#0C9FEB" stroke-width="1.81208"/>
<line x1="128.843" y1="146.059" x2="139.448" y2="142.199" stroke="#0C9FEB" stroke-width="1.81208"/>
<line x1="154.007" y1="144.961" x2="165.121" y2="143.001" stroke="#0C9FEB" stroke-width="1.81208"/>
<line x1="193.535" y1="145.701" x2="182.25" y2="145.701" stroke="#0C9FEB" stroke-width="1.81208"/>
<line x1="218.641" y1="146.745" x2="207.527" y2="144.786" stroke="#0C9FEB" stroke-width="1.81208"/>
<line x1="5.12941" y1="169.029" x2="10.7721" y2="159.255" stroke="#0C9FEB" stroke-width="1.81208"/>
<line x1="29.4033" y1="168.546" x2="36.6574" y2="159.901" stroke="#0C9FEB" stroke-width="1.81208"/>
<line x1="53.8649" y1="167.729" x2="62.51" y2="160.475" stroke="#0C9FEB" stroke-width="1.81208"/>
<line x1="78.5389" y1="166.581" x2="88.3123" y2="160.938" stroke="#0C9FEB" stroke-width="1.81208"/>
<line x1="103.449" y1="165.809" x2="114.054" y2="161.949" stroke="#0C9FEB" stroke-width="1.81208"/>
<line x1="128.614" y1="164.71" x2="139.728" y2="162.75" stroke="#0C9FEB" stroke-width="1.81208"/>
<line x1="168.141" y1="165.45" x2="156.856" y2="165.45" stroke="#0C9FEB" stroke-width="1.81208"/>
<line x1="193.247" y1="166.494" x2="182.133" y2="164.534" stroke="#0C9FEB" stroke-width="1.81208"/>
<line x1="218.106" y1="167.511" x2="207.501" y2="163.652" stroke="#0C9FEB" stroke-width="1.81208"/>
<line x1="4.00955" y1="188.296" x2="11.2636" y2="179.651" stroke="#0C9FEB" stroke-width="1.81208"/>
<line x1="28.4711" y1="187.478" x2="37.1162" y2="180.224" stroke="#0C9FEB" stroke-width="1.81208"/>
<line x1="53.1485" y1="186.33" x2="62.922" y2="180.688" stroke="#0C9FEB" stroke-width="1.81208"/>
<line x1="78.059" y1="185.558" x2="88.6638" y2="181.699" stroke="#0C9FEB" stroke-width="1.81208"/>
<line x1="103.223" y1="184.459" x2="114.337" y2="182.5" stroke="#0C9FEB" stroke-width="1.81208"/>
<line x1="217.34" y1="187.9" x2="207.567" y2="182.257" stroke="#0C9FEB" stroke-width="1.81208"/>
<line x1="142.751" y1="185.199" x2="131.466" y2="185.199" stroke="#0C9FEB" stroke-width="1.81208"/>
<line x1="167.857" y1="186.244" x2="156.743" y2="184.284" stroke="#0C9FEB" stroke-width="1.81208"/>
<line x1="192.716" y1="187.261" x2="182.111" y2="183.401" stroke="#0C9FEB" stroke-width="1.81208"/>
<line x1="3.08069" y1="207.228" x2="11.7258" y2="199.974" stroke="#0C9FEB" stroke-width="1.81208"/>
<line x1="27.7545" y1="206.079" x2="37.5279" y2="200.437" stroke="#0C9FEB" stroke-width="1.81208"/>
<line x1="52.6652" y1="205.307" x2="63.27" y2="201.447" stroke="#0C9FEB" stroke-width="1.81208"/>
<line x1="77.8295" y1="204.208" x2="88.9434" y2="202.249" stroke="#0C9FEB" stroke-width="1.81208"/>
<line x1="191.946" y1="207.649" x2="182.173" y2="202.006" stroke="#0C9FEB" stroke-width="1.81208"/>
<line x1="216.365" y1="208.616" x2="207.72" y2="201.362" stroke="#0C9FEB" stroke-width="1.81208"/>
<line x1="117.357" y1="204.949" x2="106.072" y2="204.949" stroke="#0C9FEB" stroke-width="1.81208"/>
<line x1="142.463" y1="205.993" x2="131.349" y2="204.033" stroke="#0C9FEB" stroke-width="1.81208"/>
<line x1="167.322" y1="207.01" x2="156.717" y2="203.15" stroke="#0C9FEB" stroke-width="1.81208"/>
<line x1="2.36412" y1="225.829" x2="12.1375" y2="220.186" stroke="#0C9FEB" stroke-width="1.81208"/>
<line x1="27.2748" y1="225.057" x2="37.8796" y2="221.197" stroke="#0C9FEB" stroke-width="1.81208"/>
<line x1="52.4391" y1="223.958" x2="63.553" y2="221.998" stroke="#0C9FEB" stroke-width="1.81208"/>
<line x1="166.556" y1="227.398" x2="156.782" y2="221.756" stroke="#0C9FEB" stroke-width="1.81208"/>
<line x1="190.971" y1="228.366" x2="182.326" y2="221.112" stroke="#0C9FEB" stroke-width="1.81208"/>
<line x1="215.209" y1="228.959" x2="207.955" y2="220.314" stroke="#0C9FEB" stroke-width="1.81208"/>
<line x1="91.9666" y1="224.698" x2="80.6812" y2="224.698" stroke="#0C9FEB" stroke-width="1.81208"/>
<line x1="117.072" y1="225.742" x2="105.958" y2="223.783" stroke="#0C9FEB" stroke-width="1.81208"/>
<line x1="141.931" y1="226.76" x2="131.327" y2="222.9" stroke="#0C9FEB" stroke-width="1.81208"/>
<line x1="1.88079" y1="244.806" x2="12.4856" y2="240.946" stroke="#0C9FEB" stroke-width="1.81208"/>
<line x1="27.0451" y1="243.708" x2="38.159" y2="241.748" stroke="#0C9FEB" stroke-width="1.81208"/>
<line x1="141.162" y1="247.148" x2="131.388" y2="241.505" stroke="#0C9FEB" stroke-width="1.81208"/>
<line x1="165.58" y1="248.115" x2="156.935" y2="240.861" stroke="#0C9FEB" stroke-width="1.81208"/>
<line x1="189.819" y1="248.708" x2="182.565" y2="240.063" stroke="#0C9FEB" stroke-width="1.81208"/>
<line x1="213.911" y1="248.932" x2="208.269" y2="239.158" stroke="#0C9FEB" stroke-width="1.81208"/>
<line x1="66.5728" y1="244.448" x2="55.2874" y2="244.448" stroke="#0C9FEB" stroke-width="1.81208"/>
<line x1="91.6784" y1="245.492" x2="80.5644" y2="243.533" stroke="#0C9FEB" stroke-width="1.81208"/>
<line x1="116.538" y1="246.509" x2="105.933" y2="242.649" stroke="#0C9FEB" stroke-width="1.81208"/>
<line x1="1.65468" y1="263.456" x2="12.7686" y2="261.497" stroke="#0C9FEB" stroke-width="1.81208"/>
<line x1="115.771" y1="266.897" x2="105.998" y2="261.254" stroke="#0C9FEB" stroke-width="1.81208"/>
<line x1="140.187" y1="267.864" x2="131.542" y2="260.61" stroke="#0C9FEB" stroke-width="1.81208"/>
<line x1="164.425" y1="268.458" x2="157.171" y2="259.813" stroke="#0C9FEB" stroke-width="1.81208"/>
<line x1="188.518" y1="268.682" x2="182.875" y2="258.908" stroke="#0C9FEB" stroke-width="1.81208"/>
<line x1="212.507" y1="268.891" x2="208.647" y2="258.286" stroke="#0C9FEB" stroke-width="1.81208"/>
<line x1="41.1824" y1="264.197" x2="29.897" y2="264.197" stroke="#0C9FEB" stroke-width="1.81208"/>
<line x1="66.288" y1="265.241" x2="55.1741" y2="263.281" stroke="#0C9FEB" stroke-width="1.81208"/>
<line x1="91.1471" y1="266.258" x2="80.5424" y2="262.399" stroke="#0C9FEB" stroke-width="1.81208"/>
<line x1="90.3775" y1="286.647" x2="80.6041" y2="281.004" stroke="#0C9FEB" stroke-width="1.81208"/>
<line x1="114.796" y1="287.613" x2="106.151" y2="280.359" stroke="#0C9FEB" stroke-width="1.81208"/>
<line x1="139.034" y1="288.208" x2="131.78" y2="279.563" stroke="#0C9FEB" stroke-width="1.81208"/>
<line x1="163.127" y1="288.43" x2="157.485" y2="278.657" stroke="#0C9FEB" stroke-width="1.81208"/>
<line x1="187.113" y1="288.64" x2="183.253" y2="278.036" stroke="#0C9FEB" stroke-width="1.81208"/>
<line x1="211.04" y1="288.84" x2="209.08" y2="277.726" stroke="#0C9FEB" stroke-width="1.81208"/>
<line x1="15.7886" y1="283.946" x2="4.50321" y2="283.946" stroke="#0C9FEB" stroke-width="1.81208"/>
<line x1="40.8942" y1="284.991" x2="29.7803" y2="283.031" stroke="#0C9FEB" stroke-width="1.81208"/>
<line x1="65.7531" y1="286.008" x2="55.1483" y2="282.148" stroke="#0C9FEB" stroke-width="1.81208"/>
<line x1="64.9872" y1="306.395" x2="55.2138" y2="300.753" stroke="#0C9FEB" stroke-width="1.81208"/>
<line x1="89.4022" y1="307.363" x2="80.7571" y2="300.109" stroke="#0C9FEB" stroke-width="1.81208"/>
<line x1="113.64" y1="307.957" x2="106.386" y2="299.311" stroke="#0C9FEB" stroke-width="1.81208"/>
<line x1="137.733" y1="308.18" x2="132.091" y2="298.407" stroke="#0C9FEB" stroke-width="1.81208"/>
<line x1="161.723" y1="308.389" x2="157.863" y2="297.784" stroke="#0C9FEB" stroke-width="1.81208"/>
<line x1="185.649" y1="308.59" x2="183.69" y2="297.476" stroke="#0C9FEB" stroke-width="1.81208"/>
<line x1="209.557" y1="308.432" x2="209.557" y2="297.147" stroke="#0C9FEB" stroke-width="1.81208"/>
<line x1="15.5038" y1="304.74" x2="4.38989" y2="302.78" stroke="#0C9FEB" stroke-width="1.81208"/>
<line x1="40.3627" y1="305.757" x2="29.758" y2="301.897" stroke="#0C9FEB" stroke-width="1.81208"/>
<line x1="39.5934" y1="326.145" x2="29.82" y2="320.502" stroke="#0C9FEB" stroke-width="1.81208"/>
<line x1="64.0118" y1="327.113" x2="55.3668" y2="319.859" stroke="#0C9FEB" stroke-width="1.81208"/>
<line x1="88.25" y1="327.706" x2="80.9959" y2="319.061" stroke="#0C9FEB" stroke-width="1.81208"/>
<line x1="112.343" y1="327.929" x2="106.7" y2="318.156" stroke="#0C9FEB" stroke-width="1.81208"/>
<line x1="136.329" y1="328.139" x2="132.469" y2="317.534" stroke="#0C9FEB" stroke-width="1.81208"/>
<line x1="160.255" y1="328.339" x2="158.296" y2="317.226" stroke="#0C9FEB" stroke-width="1.81208"/>
<line x1="184.163" y1="328.182" x2="184.163" y2="316.897" stroke="#0C9FEB" stroke-width="1.81208"/>
<line x1="208.102" y1="328.025" x2="210.062" y2="316.911" stroke="#0C9FEB" stroke-width="1.81208"/>
<line x1="14.9689" y1="325.507" x2="4.36415" y2="321.647" stroke="#0C9FEB" stroke-width="1.81208"/>
<line x1="206.717" y1="347.269" x2="210.577" y2="336.664" stroke="#0C9FEB" stroke-width="1.81208"/>
<line x1="14.203" y1="345.895" x2="4.42958" y2="340.252" stroke="#0C9FEB" stroke-width="1.81208"/>
<line x1="38.618" y1="346.862" x2="29.973" y2="339.608" stroke="#0C9FEB" stroke-width="1.81208"/>
<line x1="62.8562" y1="347.455" x2="55.6021" y2="338.81" stroke="#0C9FEB" stroke-width="1.81208"/>
<line x1="86.949" y1="347.679" x2="81.3063" y2="337.905" stroke="#0C9FEB" stroke-width="1.81208"/>
<line x1="110.938" y1="347.889" x2="107.079" y2="337.284" stroke="#0C9FEB" stroke-width="1.81208"/>
<line x1="134.865" y1="348.088" x2="132.905" y2="336.974" stroke="#0C9FEB" stroke-width="1.81208"/>
<line x1="158.773" y1="347.931" x2="158.773" y2="336.646" stroke="#0C9FEB" stroke-width="1.81208"/>
<line x1="182.708" y1="347.774" x2="184.668" y2="336.66" stroke="#0C9FEB" stroke-width="1.81208"/>
<line x1="181.326" y1="367.018" x2="185.186" y2="356.413" stroke="#0C9FEB" stroke-width="1.81208"/>
<line x1="205.446" y1="366.522" x2="211.088" y2="356.749" stroke="#0C9FEB" stroke-width="1.81208"/>
<line x1="13.2277" y1="366.611" x2="4.58258" y2="359.357" stroke="#0C9FEB" stroke-width="1.81208"/>
<line x1="37.4658" y1="367.205" x2="30.2118" y2="358.56" stroke="#0C9FEB" stroke-width="1.81208"/>
<line x1="61.5586" y1="367.429" x2="55.9159" y2="357.655" stroke="#0C9FEB" stroke-width="1.81208"/>
<line x1="85.5446" y1="367.638" x2="81.6848" y2="357.033" stroke="#0C9FEB" stroke-width="1.81208"/>
<line x1="109.471" y1="367.838" x2="107.512" y2="356.724" stroke="#0C9FEB" stroke-width="1.81208"/>
<line x1="133.379" y1="367.681" x2="133.379" y2="356.395" stroke="#0C9FEB" stroke-width="1.81208"/>
<line x1="157.318" y1="367.523" x2="159.278" y2="356.409" stroke="#0C9FEB" stroke-width="1.81208"/>
</g>
</svg>
