<svg width="34" height="32" viewBox="0 0 34 32" fill="none" xmlns="http://www.w3.org/2000/svg">
<path d="M8.32539 22.3978V15.9994L1.39671 18.6619C0.55529 18.9852 0 19.7935 0 20.6949V24.1032C0 25.0045 0.555176 25.8127 1.39647 26.1361L15.8693 31.6995C16.3723 31.8929 16.9292 31.8929 17.4323 31.6995L24.975 28.7996L8.32539 22.3978Z" fill="#95C11F"/>
<path d="M33.3075 7.89645C33.3073 6.99529 32.7522 6.18731 31.9111 5.86395L17.439 0.300407C16.936 0.107033 16.3792 0.107014 15.8761 0.300354L8.33105 3.20034L24.9807 9.5965L24.983 15.9994L31.9114 13.337C32.7529 13.0137 33.3083 12.2052 33.3081 11.3037L33.3075 7.89645Z" fill="#F39200"/>
<path d="M8.33211 9.60099L8.32985 3.20032L1.40252 5.86583C0.561573 6.18941 0.00671387 6.99743 0.00671387 7.89848V12.8002L24.9818 22.4001V28.7996L30.3478 30.8624C31.7743 31.4107 33.3072 30.3577 33.3072 28.8294V20.6959C33.3072 19.7946 32.7519 18.9863 31.9106 18.663L8.33211 9.60099Z" fill="#007BC4"/>
</svg>
